Coordinates
version=1
nRows=8
nColumns=36
inDegrees=yes

Units are S.I. units (second, meters, Newtons, ...)
If the header above contains a line with 'inDegrees', this indicates whether rotational values are in degrees (yes) or radians (no).

endheader
time	pelvis_tilt	pelvis_list	pelvis_rotation	pelvis_tx	pelvis_ty	pelvis_tz	hip_flexion_r	hip_adduction_r	hip_rotation_r	knee_angle_r	knee_angle_r_beta	ankle_angle_r	subtalar_angle_r	mtp_angle_r	hip_flexion_l	hip_adduction_l	hip_rotation_l	knee_angle_l	knee_angle_l_beta	ankle_angle_l	subtalar_angle_l	mtp_angle_l	lumbar_extension	lumbar_bending	lumbar_rotation	arm_flex_r	arm_add_r	arm_rot_r	elbow_flex_r	pro_sup_r	arm_flex_l	arm_add_l	arm_rot_l	elbow_flex_l	pro_sup_l
      4.20000000	    -41.76783976	      1.17754466	     -2.23821109	      0.93156891	      0.61807263	     -0.65813031	    108.78728866	    -18.12944231	     -4.04186298	     97.89540143	      1.70859708	     30.92263413	     -2.23715968	     -7.49999987	    109.74787007	    -13.28102475	      2.46258496	     94.89583665	      1.65624480	     28.37364614	     -8.14785517	     -7.49999987	    -25.19552642	      2.79403254	      6.18830388	    107.36554809	    -36.52699919	     49.70298325	    134.93688281	     51.82399852	     94.19818449	    -36.75671993	     39.56187372	    132.29368943	     81.94056243
      4.21666670	    -41.15692266	      1.18039626	     -2.20997283	      0.92705039	      0.62722252	     -0.66377140	    107.41716559	    -18.37513971	     -4.27600544	     96.78736627	      1.68925822	     30.39724589	     -2.07500274	     -7.49999987	    108.39997456	    -12.98794186	      2.20395270	     94.08976677	      1.64217622	     28.47225413	     -8.17318984	     -7.49999987	    -25.52745209	      3.02303497	      5.81905655	    106.48739331	    -37.59977924	     49.46937837	    135.36323744	     51.84634863	     92.73615496	    -37.05540105	     40.60179527	    133.00241221	     82.01358989
      4.23333330	    -40.92961827	      1.15021948	     -2.16831431	      0.92380591	      0.63328542	     -0.65569426	    106.33230528	    -18.42705245	     -4.58069910	     95.55194044	      1.66769597	     29.95223778	     -1.85612000	     -7.49999987	    107.40930996	    -12.82724596	      2.02125497	     93.10914476	      1.62506114	     28.49057472	     -8.13849461	     -7.49999987	    -25.26685227	      2.33199558	      5.26930334	    104.54445495	    -37.66500436	     47.42321004	    136.56954874	     51.73788750	     93.44725047	    -38.58234348	     42.46406637	    133.24140988	     80.71519754
      4.25000000	    -40.59604412	      1.12847290	     -2.09394674	      0.92266323	      0.65420271	     -0.66921414	    104.56595540	    -18.64129494	     -5.14816221	     93.47579726	      1.63146043	     29.22179289	     -1.72025963	     -7.49999987	    105.77705987	    -12.45949191	      1.64486051	     91.38320999	      1.59493790	     28.08895017	     -8.22303574	     -7.49999987	    -25.38897640	      2.38925967	      5.64969224	    105.13995699	    -39.18087275	     49.95388423	    139.22238146	     51.88641100	     92.80813919	    -37.31543907	     41.53592623	    133.21408869	     80.39542165
      4.26666670	    -39.97397539	      1.14709299	     -2.03295227	      0.93397478	      0.67060137	     -0.66564895	    101.98194712	    -18.74623803	     -5.73748141	     90.90354115	      1.58656609	     28.49009245	     -1.49962823	     -7.49999987	    103.23838606	    -12.05890642	      1.21802860	     89.14689532	      1.55590684	     27.94973479	     -8.03754943	     -7.49999987	    -25.29999340	      2.34413950	      5.45789334	    104.24686482	    -38.87089298	     49.73746536	    140.00974176	     51.95946669	     91.47607096	    -37.36689494	     41.54321713	    132.92758210	     80.36979049
      4.28333330	    -39.50660543	      1.18736368	     -1.89616450	      0.93258328	      0.67948589	     -0.67873509	     99.70538748	    -19.04254799	     -6.25536281	     88.39498534	      1.54278354	     27.75664356	     -1.30809306	     -7.49999987	    100.89576631	    -11.45197060	      0.80634668	     86.89943195	      1.51668121	     27.53770230	     -7.91401117	     -7.49999987	    -24.87686505	      2.70582298	      5.07374282	    103.52142328	    -40.19465203	     48.81365616	    141.73359147	     52.82364876	     90.15066276	    -37.32166020	     41.26901125	    135.20418751	     78.93006378
      4.30000000	    -38.33890992	      1.39237345	     -1.89973857	      0.93170047	      0.68701502	     -0.67784271	     96.97910424	    -19.04920160	     -6.46490308	     86.12698217	      1.50319941	     27.05961594	     -1.33836922	     -7.49999987	     97.96993950	    -10.94412264	      0.36459918	     84.87177113	      1.48129185	     26.99668200	     -8.34026772	     -7.49999987	    -24.78752312	      2.69585335	      5.08960207	    103.71392433	    -41.22794575	     47.22917824	    142.82017452	     52.83578945	     90.18758261	    -36.59256967	     38.71945467	    135.59295739	     79.27233034
      4.31666670	    -37.63021315	      1.44041483	     -1.83923385	      0.93577589	      0.70858236	     -0.67471756	     94.33296720	    -19.00293844	     -6.89832065	     83.54796584	      1.45818709	     26.34430579	     -1.32139115	     -7.49999987	     95.33529324	    -10.45151537	      0.10832525	     82.49781174	      1.43985844	     26.67737759	     -8.25573746	     -7.49999987	    -24.55599383	      2.60382922	      3.77055289	    101.37924270	    -40.54085331	     45.42930642	    142.43280449	     52.68347398	     88.50546173	    -39.65817916	     39.81363368	    136.76123685	     80.25696712
